<?xml version="1.0" encoding="iso-8859-1"?>
<!-- Generator: Adobe Illustrator 19.0.0, SVG Export Plug-In . SVG Version: 6.00 Build 0)  -->
<svg version="1.1" id="Capa_1" xmlns="http://www.w3.org/2000/svg" xmlns:xlink="http://www.w3.org/1999/xlink" x="0px" y="0px"
	 viewBox="0 0 512.001 512.001" style="enable-background:new 0 0 512.001 512.001;" xml:space="preserve">
<rect x="477.36" y="120.42" style="fill:#48D8BF;" width="0.333" height="0.333"/>
<path style="fill:#F2F2F2;" d="M138.428,264.915c-4.326-1.639-9.157,0.543-10.794,4.868L58.417,452.691l-56.74,14.712
	c-2.114,0.548-2.273,3.488-0.23,4.261l102.768,38.89c2.042,0.773,3.87-1.536,2.648-3.346l-32.785-48.591l69.217-182.909
	C144.932,271.384,142.753,266.551,138.428,264.915z"/>
<path style="fill:#E0DFDE;" d="M104.214,510.555c2.042,0.773,3.87-1.536,2.648-3.346l-32.785-48.591l69.217-182.909
	c1.636-4.325-0.543-9.157-4.868-10.794L52.719,491.068L104.214,510.555z"/>
<path style="fill:#F2F2F2;" d="M240.188,177.681l-120.273-45.514c-4.785-1.811-10.16,0.331-12.389,4.936L62.616,229.9
	c-21.398,44.214-0.262,97.261,45.678,114.646l0,0c45.94,17.385,96.9-8.38,110.134-55.683l27.777-99.28
	C247.584,184.656,244.973,179.492,240.188,177.681z"/>
<path style="fill:#E0DFDE;" d="M240.188,177.681l-47.289-17.895l-33.024,118.036c-9.493,33.93-40.996,55.291-74.225,53.833
	c6.645,5.309,14.223,9.704,22.645,12.891l0,0c45.94,17.385,96.9-8.38,110.134-55.683l27.777-99.28
	C247.584,184.656,244.973,179.492,240.188,177.681z"/>
<path style="fill:#FF4C4C;" d="M234.754,230.513l-178.196,16.27c-9.675,40.018,11.531,82.547,51.736,97.762l0,0
	c45.94,17.385,96.9-8.38,110.134-55.683L234.754,230.513L234.754,230.513z"/>
<path style="fill:#F33A3A;" d="M234.754,230.513l-63.259,5.776l-11.62,41.532c-9.492,33.927-40.991,55.288-74.216,53.834
	c0.133,0.106,0.269,0.211,0.403,0.316c2.15,1.696,4.398,3.293,6.737,4.789c0.281,0.18,0.557,0.365,0.841,0.542
	c0.575,0.358,1.164,0.702,1.75,1.047c0.465,0.273,0.929,0.547,1.401,0.813c0.527,0.297,1.061,0.586,1.596,0.872
	c0.568,0.303,1.14,0.6,1.717,0.891c0.483,0.244,0.967,0.487,1.456,0.722c0.695,0.334,1.4,0.655,2.108,0.972
	c0.399,0.179,0.793,0.363,1.196,0.536c1.128,0.484,2.269,0.951,3.429,1.391l0,0c1.851,0.7,3.711,1.305,5.575,1.867
	c2.139,0.644,4.283,1.202,6.432,1.668c1.967,0.427,3.936,0.788,5.904,1.069c2.63,0.375,5.259,0.625,7.878,0.746
	c0.123,0.006,0.246,0.017,0.369,0.022c28.924,1.201,56.672-12.839,72.834-36.861c0.809-1.202,1.588-2.429,2.338-3.681
	c1.499-2.503,2.876-5.103,4.122-7.795c1.869-4.038,3.441-8.284,4.682-12.718L234.754,230.513L234.754,230.513z"/>
<path style="fill:#F2F2F2;" d="M510.323,467.404l-56.74-14.713l-69.217-182.909c-1.637-4.326-6.47-6.503-10.794-4.868
	c-4.325,1.636-6.504,6.469-4.868,10.794l69.217,182.909l-32.784,48.591c-1.221,1.81,0.606,4.119,2.648,3.346l102.768-38.89
	C512.596,470.892,512.437,467.952,510.323,467.404z"/>
<path style="fill:#E0DFDE;" d="M510.323,467.404l-56.74-14.713l-69.217-182.909c-1.637-4.326-6.47-6.503-10.794-4.868
	l84.616,226.566l52.366-19.816C512.596,470.892,512.437,467.952,510.323,467.404z"/>
<path style="fill:#F2F2F2;" d="M271.812,177.681l120.273-45.514c4.785-1.811,10.16,0.331,12.389,4.936l44.91,92.797
	c21.398,44.214,0.262,97.261-45.678,114.646l0,0c-45.94,17.385-96.9-8.38-110.134-55.683l-27.777-99.28
	C264.416,184.656,267.027,179.492,271.812,177.681z"/>
<path style="fill:#E0DFDE;" d="M449.384,229.9l-44.91-92.797c-2.229-4.605-7.604-6.747-12.389-4.936l-46.017,17.414l45.825,94.688
	c18.343,37.903,5.41,82.276-27.593,105.13c12.887,1.534,26.348,0.088,39.405-4.853l0,0
	C449.646,327.161,470.781,274.114,449.384,229.9z"/>
<path style="fill:#FF4C4C;" d="M277.246,230.513l178.196,16.27c9.675,40.018-11.531,82.547-51.736,97.762l0,0
	c-45.94,17.385-96.9-8.38-110.134-55.683L277.246,230.513L277.246,230.513z"/>
<path style="fill:#F33A3A;" d="M408.969,342.325c0.873-0.399,1.743-0.803,2.596-1.229c0.489-0.244,0.967-0.5,1.449-0.753
	c0.772-0.404,1.538-0.814,2.293-1.239c0.494-0.278,0.981-0.564,1.467-0.851c0.728-0.43,1.447-0.87,2.157-1.319
	c0.474-0.3,0.947-0.602,1.414-0.911c0.713-0.472,1.414-0.958,2.109-1.449c0.435-0.307,0.873-0.611,1.3-0.926
	c0.743-0.547,1.469-1.113,2.19-1.682c0.354-0.279,0.716-0.55,1.065-0.835c1.041-0.849,2.062-1.718,3.056-2.612
	c0.015-0.013,0.031-0.026,0.046-0.039c1.007-0.908,1.985-1.842,2.942-2.794c0.317-0.315,0.62-0.642,0.931-0.962
	c0.632-0.649,1.26-1.301,1.869-1.969c0.352-0.386,0.693-0.782,1.038-1.174c0.546-0.621,1.086-1.247,1.612-1.883
	c0.349-0.422,0.69-0.848,1.03-1.276c0.502-0.632,0.994-1.27,1.476-1.915c0.327-0.437,0.652-0.876,0.97-1.319
	c0.478-0.665,0.941-1.34,1.398-2.018c0.292-0.433,0.588-0.864,0.872-1.303c0.482-0.745,0.944-1.501,1.402-2.259
	c0.232-0.384,0.472-0.762,0.698-1.149c0.637-1.094,1.25-2.202,1.836-3.322c0.034-0.066,0.072-0.13,0.106-0.195
	c0.607-1.168,1.182-2.353,1.733-3.548c0.187-0.405,0.357-0.817,0.538-1.225c0.358-0.809,0.711-1.619,1.043-2.439
	c0.197-0.486,0.38-0.977,0.568-1.467c0.29-0.756,0.574-1.514,0.842-2.278c0.182-0.518,0.355-1.038,0.526-1.559
	c0.248-0.753,0.485-1.509,0.712-2.269c0.157-0.527,0.312-1.055,0.459-1.586c0.215-0.777,0.414-1.558,0.606-2.341
	c0.127-0.516,0.258-1.03,0.375-1.549c0.192-0.849,0.361-1.703,0.527-2.558c0.088-0.456,0.187-0.909,0.268-1.367
	c0.214-1.211,0.4-2.427,0.56-3.648c0.016-0.122,0.037-0.243,0.052-0.364c0.165-1.299,0.295-2.604,0.398-3.913
	c0.036-0.457,0.053-0.917,0.082-1.375c0.055-0.882,0.106-1.764,0.133-2.648c0.016-0.537,0.018-1.076,0.024-1.613
	c0.009-0.813,0.012-1.626-0.003-2.44c-0.01-0.563-0.03-1.127-0.052-1.691c-0.031-0.799-0.073-1.598-0.127-2.398
	c-0.038-0.565-0.079-1.131-0.129-1.696c-0.072-0.814-0.162-1.628-0.258-2.443c-0.064-0.545-0.125-1.09-0.2-1.635
	c-0.122-0.878-0.268-1.754-0.418-2.631c-0.082-0.477-0.152-0.955-0.243-1.433c-0.233-1.227-0.495-2.452-0.785-3.675
	c-0.029-0.123-0.051-0.247-0.08-0.37l-65.214-5.954l1.665,3.439c18.343,37.903,5.41,82.276-27.593,105.13l0,0
	c0.43,0.051,0.862,0.09,1.293,0.135c0.837,0.086,1.676,0.16,2.517,0.221c0.508,0.037,1.017,0.072,1.527,0.1
	c0.953,0.052,1.909,0.084,2.867,0.103c0.425,0.008,0.85,0.018,1.276,0.02c1.086,0.004,2.173-0.014,3.263-0.053
	c0.4-0.014,0.801-0.033,1.202-0.053c1.132-0.057,2.265-0.13,3.4-0.234c0.314-0.029,0.628-0.066,0.942-0.098
	c1.11-0.114,2.221-0.247,3.332-0.407c0.202-0.029,0.404-0.054,0.607-0.085c1.222-0.185,2.444-0.405,3.666-0.647
	c0.26-0.051,0.52-0.099,0.779-0.153c1.229-0.255,2.458-0.542,3.685-0.855c0.259-0.066,0.518-0.134,0.777-0.202
	c1.25-0.332,2.499-0.689,3.744-1.082c0.193-0.061,0.386-0.127,0.579-0.189c1.32-0.427,2.637-0.878,3.95-1.375l0,0
	c1.353-0.512,2.681-1.061,3.991-1.634C408.127,342.724,408.544,342.52,408.969,342.325z"/>
<g>
	<path style="fill:#B9F5ED;" d="M56.194,77.315h-9.21v-9.21c0-4.624-3.748-8.372-8.372-8.372s-8.372,3.748-8.372,8.372v9.21h-9.21
		c-4.624,0-8.372,3.748-8.372,8.372s3.748,8.372,8.372,8.372h9.21v9.21c0,4.624,3.748,8.372,8.372,8.372s8.372-3.748,8.372-8.372
		v-9.21h9.21c4.624,0,8.372-3.748,8.372-8.372S60.818,77.315,56.194,77.315z"/>
	<path style="fill:#B9F5ED;" d="M498.926,77.315h-9.21v-9.21c0-4.624-3.749-8.372-8.372-8.372c-4.624,0-8.372,3.748-8.372,8.372
		v9.21h-9.21c-4.624,0-8.372,3.748-8.372,8.372s3.749,8.372,8.372,8.372h9.21v9.21c0,4.624,3.749,8.372,8.372,8.372
		c4.624,0,8.372-3.748,8.372-8.372v-9.21h9.21c4.624,0,8.372-3.748,8.372-8.372C507.299,81.063,503.55,77.315,498.926,77.315z"/>
	<path style="fill:#B9F5ED;" d="M277.56,18.874h-9.21v-9.21c0-4.624-3.749-8.372-8.372-8.372c-4.624,0-8.372,3.748-8.372,8.372v9.21
		h-9.21c-4.624,0-8.372,3.748-8.372,8.372s3.748,8.372,8.372,8.372h9.21v9.21c0,4.624,3.748,8.372,8.372,8.372
		c4.624,0,8.372-3.748,8.372-8.372v-9.21h9.21c4.624,0,8.372-3.748,8.372-8.372S282.184,18.874,277.56,18.874z"/>
</g>
<g>
	<path style="fill:#9CE2D6;" d="M46.984,103.269v-9.21h9.21c4.624,0,8.372-3.748,8.372-8.372s-3.748-8.372-8.372-8.372h-9.21v-9.21
		c0-4.624-3.748-8.372-8.372-8.372v51.909C43.236,111.641,46.984,107.893,46.984,103.269z"/>
	<path style="fill:#9CE2D6;" d="M268.351,44.828v-9.21h9.21c4.624,0,8.372-3.748,8.372-8.372s-3.749-8.372-8.372-8.372h-9.21v-9.21
		c0-4.624-3.749-8.372-8.372-8.372v51.909C264.602,53.201,268.351,49.453,268.351,44.828z"/>
	<path style="fill:#9CE2D6;" d="M498.926,77.315h-9.21v-9.21c0-4.624-3.749-8.372-8.372-8.372c-0.16,0-0.317,0.015-0.475,0.024
		v51.861c0.158,0.009,0.315,0.024,0.475,0.024c4.624,0,8.372-3.748,8.372-8.372v-9.21h9.21c4.624,0,8.372-3.748,8.372-8.372
		C507.299,81.063,503.55,77.315,498.926,77.315z"/>
</g>
<g>
</g>
<g>
</g>
<g>
</g>
<g>
</g>
<g>
</g>
<g>
</g>
<g>
</g>
<g>
</g>
<g>
</g>
<g>
</g>
<g>
</g>
<g>
</g>
<g>
</g>
<g>
</g>
<g>
</g>
</svg>
